<svg xmlns="http://www.w3.org/2000/svg" xmlns:xlink="http://www.w3.org/1999/xlink"><symbol id="icon-burger"><path d="M0 1h24M0 7h24M0 13h24" stroke="#F9FBFD" stroke-width="2"/></symbol><symbol id="icon-call" viewBox="0 0 512.076 512.076"><g fill="#243759" xmlns="http://www.w3.org/2000/svg"><path d="M498.639 395.039l-103.646-69.12c-13.153-8.701-30.784-5.838-40.508 6.579l-30.191 38.818a12.903 12.903 0 01-16.546 3.482l-5.743-3.166c-19.038-10.377-42.726-23.296-90.453-71.04s-60.672-71.45-71.049-90.453l-3.149-5.743a12.92 12.92 0 013.413-16.606l38.792-30.182c12.412-9.725 15.279-27.351 6.588-40.508l-69.12-103.646C108.12.056 90.25-3.966 76.461 4.323L33.12 30.358A61.136 61.136 0 005.242 66.539c-15.607 56.866-3.866 155.008 140.706 299.597 115.004 114.995 200.619 145.92 259.465 145.92a151.181 151.181 0 0040.107-5.239 61.079 61.079 0 0036.181-27.878l26.061-43.315c8.301-13.792 4.281-31.673-9.123-40.585zm-5.581 31.829l-26.001 43.341a44.103 44.103 0 01-26.027 20.173c-52.497 14.413-144.213 2.475-283.008-136.32S7.29 123.559 21.703 71.054a44.17 44.17 0 0120.198-26.061l43.341-26.001c5.983-3.6 13.739-1.855 17.604 3.959l37.547 56.371 31.514 47.266c3.774 5.707 2.534 13.356-2.85 17.579l-38.801 30.182c-11.808 9.029-15.18 25.366-7.91 38.332l3.081 5.598c10.906 20.002 24.465 44.885 73.967 94.379 49.502 49.493 74.377 63.053 94.37 73.958l5.606 3.089c12.965 7.269 29.303 3.898 38.332-7.91l30.182-38.801c4.224-5.381 11.87-6.62 17.579-2.85l103.637 69.12c5.818 3.862 7.563 11.622 3.958 17.604zM290.161 85.39c80.081.089 144.977 64.986 145.067 145.067 0 4.713 3.82 8.533 8.533 8.533s8.533-3.82 8.533-8.533c-.099-89.503-72.63-162.035-162.133-162.133-4.713 0-8.533 3.82-8.533 8.533s3.82 8.533 8.533 8.533z" data-original="#000000"/><path d="M290.161 136.59c51.816.061 93.806 42.051 93.867 93.867a8.533 8.533 0 0017.066 0c-.071-61.238-49.696-110.863-110.933-110.933-4.713 0-8.533 3.82-8.533 8.533s3.82 8.533 8.533 8.533z" data-original="#000000"/><path d="M290.161 187.79c23.552.028 42.638 19.114 42.667 42.667a8.533 8.533 0 0017.066 0c-.038-32.974-26.759-59.696-59.733-59.733-4.713 0-8.533 3.82-8.533 8.533s3.82 8.533 8.533 8.533z" data-original="#000000"/></g></symbol><symbol id="icon-flag" viewBox="0 0 496 496"><g xmlns="http://www.w3.org/2000/svg" fill="#243759"><path d="M428 24H100V8a8 8 0 00-8-8H68a8 8 0 00-8 8v480a8 8 0 008 8h24a8 8 0 008-8V296h328a8 8 0 008-8V32a8 8 0 00-8-8zM84 480h-8V16h8v464zm336-360h-80v80h80v80h-80v-80h-80v80h-80v-80h-80v-80h80V40h80v80h80V40h80v80z" data-original="#000000"/><path data-original="#000000" d="M180 120h80v80h-80z"/></g></symbol><symbol id="icon-graduation" viewBox="0 0 349.2 349.2"><path d="M337.6 114.25l-139.2-68c-12-6-32.4-6-44.4 0l-142.4 68c-10 4.8-11.6 11.6-11.6 15.2 0 3.6 1.6 10 11.6 15.2l11.6 5.6v64c-7.2 2.8-12.4 10-12.4 18s5.2 15.2 12 18l-18 57.2h50.4l-18-57.2c7.2-2.8 12-10 12-18 0-8.4-5.2-15.2-12.4-18v-57.2l21.2 10.4v83.2c0 1.2.4 2.4 1.2 3.6 2 2.4 39.2 53.2 115.2 53.2s113.2-51.2 114.8-53.2c.8-1.2 1.2-2.4 1.2-3.6v-82.8l47.2-23.2c10-4.8 11.6-11.6 11.6-15.2-.4-3.6-1.6-10.4-11.6-15.2zm-60 134.4c-6.4 8-40.8 46.4-103.2 46.4-62.4 0-96.8-38.4-103.2-46.4v-75.6l82.8 39.6c6 2.8 14 4.4 22 4.4 8.4 0 16.4-1.6 22.4-4.8l79.2-38.8v75.2zm54.4-115.2l-48 23.6c-2 0-3.6.8-4.4 2.4l-86.8 42c-8.4 4.4-24.8 4.4-33.6 0l-106.8-51.2 122.8-14.4c3.6-.4 6-3.6 5.6-6.8-.4-3.6-3.6-6-6.8-5.6l-142.4 16.8-14.4-6.8c-3.6-1.6-4.4-3.6-4.4-3.6 0-.4.8-2 4.4-3.6l142.4-68.4c4.4-2 10.4-3.2 16.4-3.2 6.4 0 12.8 1.2 16.8 3.2l139.2 68c3.6 1.6 4.4 3.2 4.4 4 0 0-1.2 2-4.4 3.6z" fill="#243759" data-original="#000000" xmlns="http://www.w3.org/2000/svg"/></symbol><symbol id="icon-portfolio"><path d="M362.937 0h-294c-16.542 0-30 13.458-30 30v102c0 5.523 4.478 10 10 10s10-4.477 10-10V30c0-5.514 4.486-10 10-10h294c5.514 0 10 4.486 10 10v372c0 5.514-4.486 10-10 10h-294c-5.514 0-10-4.486-10-10V216.333c0-5.523-4.478-10-10-10s-10 4.477-10 10V402c0 16.542 13.458 30 30 30h294c16.542 0 30-13.458 30-30V30c0-16.542-13.458-30-30-30z" fill="#243759" data-original="#000000" xmlns="http://www.w3.org/2000/svg"/><path d="M56.006 169.7c-1.859-1.86-4.439-2.92-7.069-2.92s-5.21 1.06-7.07 2.92a10.107 10.107 0 00-2.93 7.07 10.1 10.1 0 002.93 7.08c1.86 1.86 4.44 2.93 7.07 2.93 2.629 0 5.209-1.07 7.069-2.93a10.078 10.078 0 002.931-7.08c0-2.63-1.071-5.2-2.931-7.07zm40.06 285.29a10.056 10.056 0 00-7.07-2.93c-2.63 0-5.21 1.07-7.069 2.93a10.072 10.072 0 00-2.931 7.07c0 2.64 1.071 5.21 2.931 7.07a10.029 10.029 0 007.069 2.93c2.641 0 5.21-1.06 7.07-2.93a10.054 10.054 0 002.93-7.07c0-2.63-1.07-5.21-2.93-7.07zM423 40.063c-5.522 0-10 4.477-10 10v392c0 5.514-4.486 10-10 10H129c-5.522 0-10 4.477-10 10s4.478 10 10 10h274c16.542 0 30-13.458 30-30v-392c0-5.523-4.478-10-10-10z" fill="#243759" data-original="#000000" xmlns="http://www.w3.org/2000/svg"/><path d="M463.063 80c-5.522 0-10 4.477-10 10v392c0 5.514-4.486 10-10 10h-314c-5.522 0-10 4.477-10 10s4.478 10 10 10h314c16.542 0 30-13.458 30-30V90c0-5.523-4.478-10-10-10zm-262.126-6h-96c-5.522 0-10 4.477-10 10v96c0 5.523 4.478 10 10 10h96c5.522 0 10-4.477 10-10V84c0-5.523-4.478-10-10-10zm-10 96h-76V94h76v76zm-22.176 65.402c-3.906-3.904-10.236-3.905-14.143 0l-26.583 26.583-12.36-12.361c-3.905-3.905-10.235-3.904-14.143 0-3.905 3.905-3.905 10.237 0 14.142l19.432 19.432a10.003 10.003 0 0014.143 0l33.654-33.654c3.905-3.905 3.905-10.237 0-14.142z" fill="#243759" data-original="#000000" xmlns="http://www.w3.org/2000/svg"/><path d="M332.604 249H215.937c-5.522 0-10 4.477-10 10s4.478 10 10 10h116.667c5.522 0 10-4.477 10-10s-4.478-10-10-10zm-5.667-175h-70c-5.522 0-10 4.477-10 10s4.478 10 10 10h70c5.522 0 10-4.477 10-10s-4.478-10-10-10zm0 48h-70c-5.522 0-10 4.477-10 10s4.478 10 10 10h70c5.522 0 10-4.477 10-10s-4.478-10-10-10zm0 48h-70c-5.522 0-10 4.477-10 10s4.478 10 10 10h70c5.522 0 10-4.477 10-10s-4.478-10-10-10zM168.761 311.769c-3.906-3.904-10.236-3.905-14.143 0l-26.583 26.583-12.36-12.361c-3.905-3.905-10.235-3.904-14.143 0-3.905 3.905-3.905 10.237 0 14.142l19.432 19.432a10.003 10.003 0 0014.143 0l33.654-33.654c3.905-3.905 3.905-10.237 0-14.142zM332.604 325H215.937c-5.522 0-10 4.477-10 10s4.478 10 10 10h116.667c5.522 0 10-4.477 10-10s-4.478-10-10-10z" fill="#243759" data-original="#000000" xmlns="http://www.w3.org/2000/svg"/></symbol><symbol id="icon-start"><path d="M511.4 38.222C510.291 17.884 494.116 1.711 473.778.601 432.74-1.641 352.436.54 275.648 40.257c-39.145 20.248-80.545 54.577-113.584 94.185-.407.488-.803.979-1.207 1.468l-74.98 5.792c-12.342.954-23.335 7.423-30.161 17.747L4.562 236.821c-5.177 7.83-6 17.629-2.203 26.212 3.798 8.584 11.602 14.566 20.877 16.003l63.171 9.784c-.223 1.228-.447 2.455-.652 3.683-2.103 12.58 2.065 25.514 11.151 34.599l87.992 87.993c7.533 7.533 17.712 11.686 28.142 11.686a39.21 39.21 0 006.458-.536c1.228-.205 2.455-.429 3.683-.652l9.784 63.172c1.437 9.275 7.419 17.08 16.001 20.877a27.43 27.43 0 0011.112 2.36 27.35 27.35 0 0015.101-4.562l77.372-51.155c10.325-6.827 16.793-17.82 17.745-30.161l5.792-74.979c.489-.404.981-.8 1.469-1.207 39.609-33.039 73.939-74.439 94.186-113.585 39.719-76.791 41.896-157.096 39.657-198.131zM336.006 431.259l-74.011 48.933-9.536-61.565c31.28-9.197 62.223-23.927 91.702-43.66l-3.773 48.845a9.772 9.772 0 01-4.382 7.447zm-129.895-37.377l-87.993-87.993c-2.245-2.246-3.283-5.401-2.774-8.44 2.616-15.643 6.681-30.534 11.713-44.562l132.028 132.028c-16.848 6.035-31.939 9.635-44.534 11.741-3.044.506-6.195-.529-8.44-2.774zM88.188 171.613l48.844-3.773c-19.734 29.479-34.464 60.422-43.661 91.702l-61.564-9.535 48.934-74.012a9.772 9.772 0 017.447-4.382zm270.155 155.286c-24.233 20.213-47.756 34.833-69.438 45.412L139.684 223.09c13.858-28.304 30.771-51.873 45.417-69.431 30.575-36.655 68.602-68.276 104.331-86.756 70.474-36.453 144.725-38.416 182.713-36.348a9.839 9.839 0 019.301 9.302c2.071 37.988.104 112.238-36.349 182.713-18.479 35.728-50.1 73.754-86.754 104.329z" fill="#243759" data-original="#000000"/><path xmlns="http://www.w3.org/2000/svg" d="M350.721 236.243c19.202-.002 38.412-7.312 53.031-21.931 14.166-14.165 21.966-32.999 21.966-53.031s-7.801-38.866-21.966-53.031c-29.242-29.243-76.822-29.241-106.062 0-14.166 14.165-21.967 32.999-21.967 53.031s7.802 38.866 21.967 53.031c14.622 14.622 33.822 21.933 53.031 21.931zm-31.82-106.781c8.772-8.773 20.295-13.159 31.818-13.159 11.524 0 23.047 4.386 31.819 13.159 8.499 8.499 13.179 19.799 13.179 31.818s-4.68 23.32-13.179 31.819c-17.544 17.545-46.093 17.544-63.638 0-8.499-8.499-13.18-19.799-13.18-31.818s4.682-23.32 13.181-31.819zm-303.6 292.476c3.839 0 7.678-1.464 10.606-4.394l48.973-48.973c5.858-5.858 5.858-15.355 0-21.213-5.857-5.858-15.355-5.858-21.213 0L4.695 396.331c-5.858 5.858-5.858 15.355 0 21.213a14.95 14.95 0 0010.606 4.394zm104.46-29.699c-5.857-5.858-15.355-5.858-21.213 0L4.394 486.394c-5.858 5.858-5.858 15.355 0 21.213C7.323 510.536 11.161 512 15 512s7.678-1.464 10.606-4.394l94.154-94.154c5.859-5.858 5.859-15.355.001-21.213zm23.668 44.881l-48.973 48.973c-5.858 5.858-5.858 15.355 0 21.213 2.929 2.929 6.768 4.394 10.606 4.394s7.678-1.464 10.606-4.394l48.973-48.973c5.858-5.858 5.858-15.355 0-21.213-5.857-5.858-15.355-5.858-21.212 0z" fill="#243759" data-original="#000000"/></symbol><symbol id="icon-tick"><path d="M1 2.5L5.286 7 11 1" stroke="#101A56"/></symbol></svg>