<svg height="512pt" viewBox="0 -66 512 512" width="512pt" xmlns="http://www.w3.org/2000/svg"><path d="M179.965 89.984L51.555 52.82C29.406 46.41 7.242 63.086 7.415 86.145c.468 62.492 19.42 173.293 139.437 223.988 172.187 72.734 283.515-67.54 283.515-67.54s-2.969 51.954 48.242 75.704c0 0-13.507-37.746-6.382-90.094 7.07-51.918 32.359-93.226 32.359-93.226s-40.035 1.996-66.012 45.043l-40.863-17.583s7.547-35.16-5.813-41.093c-13.355-5.942-32.273 24.781-32.273 24.781l-74.133-25.543s1.45-53.266 29.457-90.144c7.492-9.864-.09-23.887-12.437-22.961-39.86 3-100.414 18.511-122.547 82.507zm0 0" fill="#cac0c9"/><path d="M430.363 242.7c-.11 2.495-1.68 52.445 48.246 75.597 0 0-5.379-15.055-7.558-39.32-25.57-10.766-36.473-24.41-40.688-36.278zm-.179-.516c-2.93-8.618-13.676-11.473-20.407-5.348-39.683 36.133-134.332 100.617-262.925 46.297C38.562 237.39 12.555 142.723 8.16 78.75a34.764 34.764 0 00-.746 7.395c.469 62.492 19.422 173.293 139.438 223.988 170.644 72.082 281.511-65.04 283.488-67.504a16.894 16.894 0 01-.156-.445zm0 0" fill="#bbb0ba"/><path d="M9.547 120.664c7.387 63.016 37.156 147.164 137.305 189.469 106.187 44.855 189.23 8.699 237.289-25.61C63.934 262.84 9.547 120.664 9.547 120.664zm0 0" fill="#ffe9c8"/><path d="M146.852 283.133c-79.278-33.488-114.454-93.2-129.336-147.895-5.852-9.043-7.97-14.574-7.97-14.574 7.388 63.016 37.157 147.164 137.306 189.469 106.187 44.855 189.23 8.699 237.289-25.61-13.762-.93-27.02-2.09-39.813-3.445-48.82 23.324-116.402 36.3-197.476 2.055zm0 0" fill="#ffdca7"/><path d="M178.61 237.953c14.945 39.211 56.902 134.02 113.128 133.89 35.977-.077 4.664-67.89 12.492-133.245" fill="#cac0c9"/><path d="M304.48 292.016c1.11 27.324-.671 45.632-20.425 45.675-30.825.07-62.11-26.238-86.547-56.484 20.949 42.027 53.922 90.727 94.23 90.637 26.004-.059 16.856-35.504 12.742-79.828zm0 0" fill="#bbb0ba"/><path d="M93.805 133.39c0 10.598 6.683 18.9 15.215 18.9 8.535 0 15.218-8.302 15.218-18.9s-6.683-18.902-15.218-18.902c-8.532 0-15.215 8.305-15.215 18.903zm93.855 70.825c2.926 2.851 7.75 2.789 10.602-.137 24.593-25.242 18.62-55.453 12.023-67.898a7.5 7.5 0 00-10.137-3.118c-3.66 1.942-5.054 6.481-3.113 10.137.14.266 13.684 26.606-9.515 50.414-2.887 2.965-2.829 7.715.14 10.602zm35.356 10.172a7.474 7.474 0 005.37-2.266c24.598-25.246 18.622-55.453 12.024-67.902a7.501 7.501 0 00-10.137-3.114 7.502 7.502 0 00-3.113 10.137c.14.262 13.688 26.602-9.512 50.41a7.501 7.501 0 005.368 12.735zm30.129 8.043a7.474 7.474 0 005.37-2.266c24.594-25.246 18.622-55.453 12.024-67.902-1.93-3.645-6.434-5.028-10.09-3.114-3.656 1.915-5.07 6.438-3.176 10.102.559 1.086 13.477 26.871-9.496 50.45a7.497 7.497 0 00.137 10.6 7.463 7.463 0 005.23 2.13zm0 0"/><path d="M90.059 266.633c-17.813-15.36-32.59-33.555-44.211-54.34 18.582 9.477 48.96 19.848 95.12 22.156a7.5 7.5 0 007.863-7.113 7.499 7.499 0 00-7.112-7.863c-72.711-3.637-102.934-28.36-108.25-33.27a238.08 238.08 0 01-4.36-11.82C19.98 147.277 15.23 117.582 14.996 86.12c-.062-8.558 3.82-16.441 10.664-21.621 6.883-5.215 15.59-6.828 23.88-4.43l128.366 37.153a7.497 7.497 0 009.168-4.754c11.137-32.192 40.297-71.758 115.985-77.45 5.804-.402 9.441 6.278 5.902 10.942-7.281 9.586-13.477 21.008-18.406 33.945a7.499 7.499 0 004.336 9.676 7.49 7.49 0 009.675-4.332c4.422-11.605 9.918-21.77 16.336-30.219 5.282-6.953 5.977-16.023 1.82-23.668C318.579 3.746 310.618-.602 301.935.066c-26.97 2.028-50.813 8.5-70.875 19.239-26.02 13.93-44.715 34.629-55.649 61.586L53.707 45.664c-12.883-3.73-26.406-1.219-37.102 6.883C5.953 60.613-.098 72.895 0 86.234c.25 33.055 5.262 64.32 14.902 92.934 13.371 39.703 35.364 72.953 65.364 98.82 3.093 2.668 7.906 2.313 10.574-.781a7.497 7.497 0 00-.781-10.574zm0 0"/><path d="M510.95 131.168c-1.419-2.39-4.04-3.816-6.821-3.66-1.723.082-40.844 2.508-68.492 43.113l-29.535-12.707c1.894-12.387 3.558-36.84-11.204-43.398-15.18-6.75-31.136 12.34-38.359 22.644l-63.207-21.781c.43-4.969 1.348-12.969 3.281-22.422a7.498 7.498 0 00-5.84-8.852c-4.058-.824-8.02 1.786-8.847 5.844-3.543 17.305-3.922 29.922-3.938 30.45a7.498 7.498 0 005.051 7.292l74.11 25.536a7.489 7.489 0 008.824-3.157c8.976-14.574 19.875-23.175 22.84-21.855 3.91 1.742 4.664 17.918 1.523 32.656a7.493 7.493 0 004.367 8.461l40.848 17.578a7.497 7.497 0 009.383-3.015c14.171-23.48 32.59-33.676 45.257-38.086-8.296 16.875-20.738 46.675-25.464 81.367-.543 3.996 2.296 7.8 6.28 8.418 4.09.636 8.02-2.293 8.579-6.395 6.754-49.62 31.07-89.894 31.312-90.293a7.49 7.49 0 00.051-7.738zm-33.356 124.859a7.49 7.49 0 00-7.399-7.59c-.035-.003-.066-.003-.097-.003a7.498 7.498 0 00-7.496 7.402c-.247 19.328 1.914 35.414 4.168 46.742-30.422-22.918-29.06-57.914-28.973-59.574.18-3.176-1.735-6.188-4.68-7.375-3.043-1.23-6.633-.29-8.676 2.277-.421.531-41.406 51.2-110.273 74.246-.004-.054-.012-.109-.02-.168-2.566-22.297-5.476-47.574-2.488-72.511a7.496 7.496 0 00-6.55-8.336 7.492 7.492 0 00-8.337 6.55c-3.199 26.688-.05 54.04 2.48 76.012 2.49 21.621 4.84 42.04-.745 48.32-.86.965-2.5 2.254-6.793 2.266h-.098c-21.601 0-43.707-16.45-65.707-48.887-19.324-28.5-33.523-62.441-40.27-80.136-1.472-3.871-5.804-5.809-9.675-4.336a7.502 7.502 0 00-4.336 9.676c6.754 17.718 20.762 51.218 39.95 80.332-20.458-3.11-41.169-9.047-61.77-17.75-13.079-5.528-25.41-12.012-36.653-19.286a7.494 7.494 0 00-10.367 2.227c-2.25 3.473-1.254 8.117 2.223 10.367 11.972 7.742 25.082 14.64 38.96 20.504 26.505 11.195 53.243 18.078 79.532 20.496 21.941 27.742 44.8 41.79 68.113 41.79h.13c7.632-.02 13.675-2.473 17.968-7.294 8.062-9.066 8.055-24.71 6.12-44.601 53.384-17.028 90.77-49.192 108.58-67.192a95.085 95.085 0 003.745 13.82c5.64 15.91 18.414 37.68 47.223 51.04 5.906 2.742 12.387-3.2 10.219-9.32-.09-.239-8.461-24.266-8.008-59.708zm0 0"/></svg>